# Blender 3.5.0
# www.blender.org
mtllib Title.mtl
o Cube
v 9.391850 -4.667156 -0.357385
v 9.403487 -5.992256 -0.269090
v 10.717796 -4.660518 -0.432520
v 10.729433 -5.985618 -0.344225
v 9.466375 -4.578345 0.965634
v 9.478012 -5.903445 1.053929
v 10.792321 -4.571707 0.890499
v 10.803958 -5.896807 0.978794
v 10.684217 -0.836792 -0.687307
v 10.758741 -0.747981 0.635713
v 9.358272 -0.843431 -0.612172
v 9.432796 -0.754619 0.710847
v 10.666460 1.185178 -0.822037
v 10.740985 1.273989 0.500982
v 9.340515 1.178540 -0.746902
v 9.415039 1.267351 0.576117
v 10.655425 2.441757 -0.905766
v 10.729950 2.530568 0.417253
v 9.329479 2.435119 -0.830631
v 9.404004 2.523930 0.492388
v 7.408580 1.257307 0.689814
v 7.334056 1.168496 -0.633205
v 7.397545 2.513885 0.606084
v 7.323021 2.425075 -0.716935
v 6.472233 1.252619 0.742872
v 6.397708 1.163808 -0.580147
v 6.461198 2.509198 0.659142
v 6.386673 2.420387 -0.663877
v 7.416328 0.375028 0.748603
v 7.341804 0.286217 -0.574417
v 6.479981 0.370341 0.801661
v 6.405457 0.281529 -0.521358
v 7.425015 -0.614193 0.814517
v 7.350491 -0.703004 -0.508502
v 6.488668 -0.618881 0.867576
v 6.414144 -0.707692 -0.455443
v 9.422788 0.385073 0.634906
v 9.348263 0.296261 -0.688113
v 9.431475 -0.604149 0.700821
v 9.356950 -0.692960 -0.622198
v 5.052109 -5.925601 1.304724
v 5.040473 -4.600501 1.216428
v 3.726163 -5.932239 1.379859
v 3.714527 -4.607139 1.291563
v 4.977584 -6.014412 -0.018295
v 4.965948 -4.689312 -0.106591
v 3.651639 -6.021050 0.056840
v 3.640002 -4.695951 -0.031456
v 4.978723 2.430991 0.747899
v 3.652777 2.424353 0.823033
v 3.578252 2.335542 -0.499986
v 4.904198 2.342180 -0.575120
v 0.501140 -4.623226 1.473650
v 0.512776 -5.948325 1.561946
v 0.438252 -6.037137 0.238927
v 0.426616 -4.712037 0.150631
v -0.646091 -5.702682 1.610734
v -1.088233 -4.451746 1.551667
v -1.896203 -6.139821 1.710496
v -2.338345 -4.888885 1.651429
v -0.720615 -5.791493 0.287715
v -1.162757 -4.540557 0.228648
v -1.970727 -6.228632 0.387477
v -2.412868 -4.977695 0.328410
v -2.723921 0.176049 1.333151
v -3.974030 -0.261090 1.432912
v -4.048553 -0.349901 0.109893
v -2.798445 0.087238 0.010132
v -3.513802 2.410835 1.227628
v -5.098330 1.677243 1.366127
v -5.172854 1.588431 0.043108
v -3.588326 2.322023 -0.095391
v -4.109074 1.063946 0.018394
v -3.193385 1.204630 -0.042630
v -3.118861 1.293442 1.280389
v -4.034550 1.152757 1.341413
v -8.528934 -5.312051 2.028545
v -8.603458 -5.400862 0.705526
v -7.539677 -5.925348 0.680812
v -7.465153 -5.836536 2.003831
v -3.311268 -2.607482 1.553087
v -3.385792 -2.696293 0.230068
v -1.980600 -2.226660 0.119390
v -1.906076 -2.137849 1.442409
v -6.888157 -1.906215 0.374317
v -6.813633 -1.817404 1.697336
v -5.749850 -2.341890 1.672622
v -5.824374 -2.430701 0.349603
v -2.821790 -3.820747 0.273781
v -1.571679 -3.383608 0.174019
v -2.747266 -3.731936 1.596800
v -1.497155 -3.294797 1.497038
v -3.410028 -1.385544 1.476625
v -2.314999 -0.980900 1.387780
v -3.484551 -1.474355 0.153606
v -2.389523 -1.069711 0.064761
v -5.955982 -0.070081 1.531732
v -4.966724 -0.683378 0.183998
v -6.030506 -0.158892 0.208713
v -4.892200 -0.594566 1.507017
v -7.745808 -3.653539 0.539922
v -6.607502 -4.089213 1.838227
v -7.671284 -3.564727 1.862941
v -6.682026 -4.178024 0.515208
v -5.945000 -1.663748 0.304914
v -5.846238 -2.885685 0.381377
v -5.771714 -2.796874 1.704396
v -5.870474 -1.574937 1.627933
v -11.191618 -6.006918 2.225177
v -11.203257 -4.681818 2.136881
v -12.517565 -6.013556 2.300312
v -12.529203 -4.688457 2.212016
v -11.266142 -6.095730 0.902158
v -11.277781 -4.770630 0.813862
v -12.592089 -6.102367 0.977293
v -12.603727 -4.777267 0.888997
v -11.330912 -0.947694 1.893409
v -12.388687 -0.943616 1.952719
v -12.463211 -1.032428 0.629700
v -11.405436 -1.036505 0.570390
v -11.854591 -6.010237 2.262744
v -11.866230 -4.685137 2.174449
v -11.929115 -6.099049 0.939725
v -11.940754 -4.773949 0.851430
v -11.983589 -0.264318 1.884300
v -12.058113 -0.353129 0.561281
v -14.822279 1.433154 1.930254
v -15.227377 0.753856 1.998672
v -15.301901 0.665045 0.675653
v -14.896803 1.344343 0.607234
v -9.938812 1.667570 0.306258
v -9.286135 0.984193 0.315367
v -9.211611 1.073005 1.638386
v -9.864288 1.756381 1.629277
vn 0.0561 0.0669 0.9962
vn 0.9984 0.0050 -0.0566
vn 0.0088 -0.9977 0.0665
vn -0.0561 -0.0669 -0.9962
vn -0.9984 -0.0050 0.0566
vn -0.0088 0.9977 -0.0665
vn -0.9413 -0.3291 0.0751
vn 0.9413 0.3291 -0.0751
vn 0.3329 -0.9419 0.0445
vn -0.8922 -0.4444 0.0801
vn -0.4225 0.9056 -0.0370
vn -0.8967 0.4421 0.0208
vn -0.9975 -0.0389 0.0588
vn -0.4390 -0.8945 0.0848
vn 0.8967 -0.4421 -0.0208
vn -0.9952 -0.0766 0.0612
vn -0.0804 0.9948 -0.0623
vn 0.0804 -0.9948 0.0623
vn -0.6906 0.7231 -0.0096
vn 0.9978 0.0303 -0.0582
vn -0.9977 0.0411 0.0534
vn 0.5103 0.8557 -0.0862
vn -0.8582 0.5132 0.0139
vn -0.5103 -0.8557 0.0862
vn 0.7210 0.6875 -0.0868
vn 0.6906 -0.7231 0.0096
vt 0.625000 0.500000
vt 0.375000 0.500000
vt 0.625000 0.750000
vt 0.375000 0.750000
vt 0.625000 0.250000
vt 0.125000 0.500000
vt 0.375000 0.250000
vt 0.625000 0.000000
vt 0.625000 1.000000
vt 0.375000 1.000000
vt 0.375000 0.000000
vt 0.125000 0.750000
vt 0.625000 0.750000
vt 0.625000 0.000000
vt 0.625000 1.000000
vt 0.625000 0.500000
vt 0.625000 0.250000
vt 0.625000 0.750000
vt 0.625000 0.000000
vt 0.625000 1.000000
vt 0.625000 0.500000
vt 0.625000 0.250000
vt 0.625000 0.750000
vt 0.625000 0.000000
vt 0.875000 0.750000
vt 0.625000 1.000000
vt 0.625000 0.500000
vt 0.625000 0.250000
vt 0.875000 0.500000
vt 0.625000 0.250000
vt 0.625000 0.500000
vt 0.875000 0.500000
vt 0.625000 0.250000
vt 0.625000 0.500000
vt 0.625000 0.250000
vt 0.625000 0.500000
vt 0.875000 0.500000
vt 0.625000 0.250000
vt 0.625000 0.500000
vt 0.625000 0.250000
vt 0.625000 0.500000
vt 0.625000 0.250000
vt 0.625000 0.500000
vt 0.625000 0.250000
vt 0.625000 0.500000
vt 0.625000 0.250000
vt 0.625000 0.500000
vt 0.625000 0.250000
vt 0.625000 0.500000
vt 0.625000 0.250000
vt 0.625000 0.500000
vt 0.375000 0.000000
vt 0.375000 1.000000
vt 0.125000 0.750000
vt 0.625000 0.000000
vt 0.625000 1.000000
vt 0.375000 0.250000
vt 0.125000 0.500000
vt 0.625000 0.250000
vt 0.375000 0.750000
vt 0.625000 0.750000
vt 0.375000 0.500000
vt 0.625000 0.500000
vt 0.875000 0.750000
vt 0.625000 0.000000
vt 0.625000 1.000000
vt 0.875000 0.500000
vt 0.625000 0.250000
vt 0.625000 0.500000
vt 0.625000 0.750000
vt 0.625000 0.250000
vt 0.375000 0.250000
vt 0.125000 0.500000
vt 0.375000 0.500000
vt 0.625000 0.500000
vt 0.375000 0.000000
vt 0.375000 1.000000
vt 0.125000 0.750000
vt 0.625000 0.000000
vt 0.625000 1.000000
vt 0.375000 0.250000
vt 0.125000 0.500000
vt 0.625000 0.250000
vt 0.375000 0.750000
vt 0.625000 0.750000
vt 0.375000 0.500000
vt 0.625000 0.500000
vt 0.625000 1.000000
vt 0.625000 0.000000
vt 0.625000 0.250000
vt 0.625000 0.500000
vt 0.625000 0.750000
vt 0.875000 0.750000
vt 0.625000 0.000000
vt 0.625000 1.000000
vt 0.875000 0.500000
vt 0.625000 0.250000
vt 0.625000 0.500000
vt 0.625000 0.750000
vt 0.625000 0.500000
vt 0.625000 0.750000
vt 0.625000 1.000000
vt 0.625000 0.000000
vt 0.625000 0.250000
vt 0.875000 0.500000
vt 0.625000 0.250000
vt 0.625000 0.500000
vt 0.625000 0.500000
vt 0.625000 0.250000
vt 0.625000 0.250000
vt 0.625000 0.500000
vt 0.625000 0.750000
vt 0.625000 1.000000
vt 0.625000 0.000000
vt 0.625000 0.500000
vt 0.625000 0.250000
vt 0.875000 0.500000
vt 0.625000 0.250000
vt 0.625000 0.500000
vt 0.625000 0.500000
vt 0.625000 0.750000
vt 0.625000 0.250000
vt 0.625000 0.000000
vt 0.625000 1.000000
vt 0.625000 0.250000
vt 0.625000 1.000000
vt 0.625000 0.000000
vt 0.625000 0.500000
vt 0.625000 0.750000
vt 0.875000 0.500000
vt 0.625000 0.250000
vt 0.625000 0.500000
vt 0.625000 0.500000
vt 0.625000 0.250000
vt 0.625000 0.500000
vt 0.625000 0.250000
vt 0.625000 0.250000
vt 0.875000 0.500000
vt 0.625000 0.500000
vt 0.625000 0.500000
vt 0.625000 0.500000
vt 0.625000 0.250000
vt 0.625000 0.250000
vt 0.375000 1.000000
vt 0.125000 0.750000
vt 0.375000 0.000000
vt 0.625000 1.000000
vt 0.625000 0.000000
vt 0.375000 0.250000
vt 0.125000 0.500000
vt 0.625000 0.250000
vt 0.375000 0.750000
vt 0.625000 0.750000
vt 0.375000 0.500000
vt 0.625000 0.500000
vt 0.625000 1.000000
vt 0.625000 0.000000
vt 0.625000 0.250000
vt 0.625000 0.500000
vt 0.625000 0.750000
vt 0.125000 0.625000
vt 0.375000 0.125000
vt 0.625000 0.125000
vt 0.375000 0.625000
vt 0.625000 0.625000
vt 0.875000 0.625000
vt 0.625000 0.125000
vt 0.625000 0.625000
vt 0.875000 0.625000
vt 0.625000 0.125000
vt 0.875000 0.500000
vt 0.625000 0.250000
vt 0.625000 0.500000
vt 0.625000 0.625000
vt 0.625000 0.625000
vt 0.625000 0.750000
vt 0.875000 0.750000
vt 0.625000 1.000000
vt 0.625000 0.000000
vt 0.875000 0.625000
vt 0.625000 0.125000
s 0
usemtl Material
f 5/5/1 7/8/1 10/14/1 12/17/1
f 4/4/2 3/3/2 7/9/2 8/10/2
f 8/11/1 7/8/1 5/5/1 6/7/1
f 6/6/3 2/2/3 4/4/3 8/12/3
f 2/2/4 1/1/4 3/3/4 4/4/4
f 6/7/5 5/5/5 1/1/5 2/2/5
f 11/16/5 12/17/5 16/22/5 15/21/5
f 3/3/4 1/1/4 11/16/4 9/13/4
f 1/1/5 5/5/5 12/17/5 11/16/5
f 7/9/2 3/3/2 9/13/2 10/15/2
f 16/22/1 14/19/1 18/24/1 20/28/1
f 9/13/4 11/16/4 15/21/4 13/18/4
f 12/17/1 10/14/1 14/19/1 16/22/1
f 10/15/2 9/13/2 13/18/2 14/20/2
f 19/27/6 20/29/6 18/25/6 17/23/6
f 14/20/2 13/18/2 17/23/2 18/26/2
f 19/27/4 15/21/4 22/31/4 24/34/4
f 13/18/4 15/21/4 19/27/4 17/23/4
f 23/32/6 24/34/6 28/39/6 27/37/6
f 16/22/1 20/28/1 23/33/1 21/30/1
f 20/29/6 19/27/6 24/34/6 23/32/6
f 15/21/3 16/22/3 21/30/3 22/31/3
f 26/36/5 25/35/5 27/38/5 28/39/5
f 21/30/1 23/33/1 27/38/1 25/35/1
f 25/35/5 26/36/5 32/43/5 31/42/5
f 24/34/4 22/31/4 26/36/4 28/39/4
f 32/43/4 30/41/4 34/45/4 36/47/4
f 26/36/4 22/31/4 30/41/4 32/43/4
f 22/31/2 21/30/2 29/40/2 30/41/2
f 21/30/1 25/35/1 31/42/1 29/40/1
f 34/45/3 33/44/3 35/46/3 36/47/3
f 31/42/5 32/43/5 36/47/5 35/46/5
f 29/40/1 31/42/1 35/46/1 33/44/1
f 34/45/4 30/41/4 38/49/4 40/51/4
f 38/49/2 37/48/2 39/50/2 40/51/2
f 33/44/3 34/45/3 40/51/3 39/50/3
f 29/40/1 33/44/1 39/50/1 37/48/1
f 30/41/6 29/40/6 37/48/6 38/49/6
f 41/52/1 42/55/1 44/59/1 43/57/1
f 44/59/6 48/63/6 56/75/6 53/71/6
f 47/62/4 48/63/4 46/61/4 45/60/4
f 45/60/2 46/61/2 42/56/2 41/53/2
f 43/58/3 47/62/3 45/60/3 41/54/3
f 46/61/4 48/63/4 51/69/4 52/70/4
f 51/69/6 50/67/6 49/64/6 52/70/6
f 44/59/1 42/55/1 49/65/1 50/68/1
f 42/56/2 46/61/2 52/70/2 49/66/2
f 48/63/5 44/59/5 50/68/5 51/69/5
f 54/72/5 53/71/5 56/75/5 55/74/5
f 43/57/1 44/59/1 53/71/1 54/72/1
f 48/63/4 47/62/4 55/74/4 56/75/4
f 47/62/3 43/58/3 54/73/3 55/74/3
f 57/76/1 58/79/1 60/83/1 59/81/1
f 59/81/7 60/83/7 64/87/7 63/86/7
f 63/86/4 64/87/4 62/85/4 61/84/4
f 61/84/8 62/85/8 58/80/8 57/77/8
f 59/82/9 63/86/9 61/84/9 57/78/9
f 95/128/10 93/125/10 66/90/10 67/91/10
f 74/101/4 73/100/4 71/98/4 72/99/4
f 96/129/4 95/128/4 67/91/4 68/92/4
f 93/125/1 94/127/1 65/89/1 66/90/1
f 94/126/8 96/129/8 68/92/8 65/88/8
f 71/98/11 70/96/11 69/93/11 72/99/11
f 76/104/1 75/103/1 69/94/1 70/97/1
f 75/102/8 74/101/8 72/99/8 69/95/8
f 103/138/12 101/135/12 78/107/12 77/105/12
f 67/91/13 66/90/13 76/104/13 73/100/13
f 65/88/8 68/92/8 74/101/8 75/102/8
f 66/90/1 65/89/1 75/103/1 76/104/1
f 68/92/4 67/91/4 73/100/4 74/101/4
f 79/108/14 80/109/14 77/106/14 78/107/14
f 104/139/15 102/136/15 80/109/15 79/108/15
f 101/135/4 104/139/4 79/108/4 78/107/4
f 102/136/1 103/137/1 77/106/1 80/109/1
f 92/124/8 90/121/8 83/112/8 84/113/8
f 91/122/1 92/123/1 84/114/1 81/110/1
f 90/121/4 89/120/4 82/111/4 83/112/4
f 89/120/10 91/122/10 81/110/10 82/111/10
f 100/134/1 97/131/1 86/116/1 87/118/1
f 99/133/4 98/132/4 88/119/4 85/115/4
f 98/132/15 100/134/15 87/118/15 88/119/15
f 97/130/12 99/133/12 85/115/12 86/117/12
f 64/87/7 60/83/7 91/122/7 89/120/7
f 62/85/4 64/87/4 89/120/4 90/121/4
f 60/83/1 58/79/1 92/123/1 91/122/1
f 58/80/8 62/85/8 90/121/8 92/124/8
f 84/113/8 83/112/8 96/129/8 94/126/8
f 81/110/1 84/114/1 94/127/1 93/125/1
f 83/112/4 82/111/4 95/128/4 96/129/4
f 95/128/4 82/111/4 106/141/4 105/140/4
f 70/96/12 71/98/12 99/133/12 97/130/12
f 73/100/15 76/104/15 100/134/15 98/132/15
f 71/98/4 73/100/4 98/132/4 99/133/4
f 76/104/1 70/97/1 97/131/1 100/134/1
f 87/118/1 86/116/1 103/137/1 102/136/1
f 85/115/4 88/119/4 104/139/4 101/135/4
f 88/119/15 87/118/15 102/136/15 104/139/15
f 86/117/12 85/115/12 101/135/12 103/138/12
f 106/141/16 107/142/16 108/143/16 105/140/16
f 81/110/1 93/125/1 108/143/1 107/142/1
f 93/125/17 95/128/17 105/140/17 108/143/17
f 82/111/18 81/110/18 107/142/18 106/141/18
f 121/162/1 122/163/1 112/151/1 111/149/1
f 111/149/5 112/151/5 116/155/5 115/154/5
f 123/164/4 124/165/4 114/153/4 113/152/4
f 113/152/2 114/153/2 110/147/2 109/144/2
f 121/161/3 123/164/3 113/152/3 109/145/3
f 124/165/4 116/155/4 119/159/4 126/168/4
f 126/168/19 125/166/19 134/180/19 131/175/19
f 122/163/1 110/148/1 117/157/1 125/167/1
f 110/147/20 114/153/20 120/160/20 117/156/20
f 116/155/21 112/151/21 118/158/21 119/159/21
f 112/151/1 122/163/1 125/167/1 118/158/1
f 125/166/22 126/168/22 130/174/22 127/169/22
f 114/153/4 124/165/4 126/168/4 120/160/4
f 111/150/3 115/154/3 123/164/3 121/161/3
f 115/154/4 116/155/4 124/165/4 123/164/4
f 109/146/1 110/148/1 122/163/1 121/162/1
f 129/173/23 128/171/23 127/169/23 130/174/23
f 126/168/4 119/159/4 129/173/4 130/174/4
f 118/158/1 125/167/1 127/170/1 128/172/1
f 119/159/24 118/158/24 128/172/24 129/173/24
f 131/175/25 134/180/25 133/177/25 132/176/25
f 120/160/4 126/168/4 131/175/4 132/176/4
f 117/156/26 120/160/26 132/176/26 133/178/26
f 125/167/1 117/157/1 133/179/1 134/181/1
